<svg width="1101" height="185" viewBox="0 0 1101 185" fill="none" xmlns="http://www.w3.org/2000/svg">
<path d="M501.261 183.595C500.864 183.137 500.402 181.305 500.203 179.539C499.608 174.307 495.179 166.197 490.088 161.095C481.427 152.462 463.179 143.305 444.865 138.465C426.684 133.625 414.783 132.251 389.99 132.121C372.337 131.99 370.618 131.728 370.618 129.57C370.618 128.458 371.081 127.869 372.271 127.608C373.197 127.411 402.486 127.281 437.394 127.411C472.7 127.542 502.782 127.411 505.162 127.084C508.997 126.496 508.468 126.43 499.741 126.365C494.451 126.365 489.625 126.103 489.03 125.907C488.435 125.711 487.972 124.926 487.972 124.272C487.972 122.898 486.782 122.964 504.038 122.964C514.154 122.964 514.484 122.898 515.145 121.525C515.674 120.282 517.459 112.891 520.699 98.5023C521.162 96.3439 524.269 82.6742 527.509 68.0888C535.509 32.9007 536.434 28.1261 535.773 27.5375C535.509 27.2104 533.922 26.818 532.269 26.6218C521.162 25.1829 517.724 24.7904 509.459 23.9402C504.369 23.4823 496.765 22.8283 492.6 22.6321C488.435 22.3704 484.27 22.0434 483.344 21.8472C482.418 21.651 466.485 21.3894 447.907 21.1931C398.519 20.6699 371.61 22.1088 339.214 26.9488C333.925 27.7991 329.363 28.6494 329.098 28.911C328.768 29.1726 328.834 29.9575 329.231 30.6115C329.759 31.658 329.627 32.2467 328.569 33.3585C327.842 34.078 327.049 34.7321 326.784 34.7321C326.52 34.7321 324.338 33.4894 322.024 31.985C318.652 29.7612 317.727 28.8456 317.727 27.5375C317.727 25.5099 319.313 24.725 326.057 23.3515C332.933 21.978 354.619 19.3618 370.949 17.9229C391.445 16.1569 472.237 16.2877 490.617 18.0537C492.27 18.2499 497.493 18.6423 502.187 19.0348C509.526 19.6234 526.715 21.5202 534.98 22.6321L537.426 22.9591L538.418 18.8386C539.013 16.6148 540.137 12.1018 540.93 8.76613C542.583 1.50614 543.31 0.394251 545.69 0.982899C548.137 1.57155 548.004 3.4029 545.095 14.3256C542.517 24.0056 542.451 23.8748 546.814 24.6596C554.417 25.9677 568.169 29.3688 575.706 31.8542C595.475 38.3293 607.574 45.9818 612.334 55.1385C614.251 58.6704 614.384 65.538 612.731 70.4434C611.408 74.3023 606.648 81.6277 603.078 85.2904C596.797 91.9617 582.12 102.296 568.764 109.49C561.029 113.742 545.889 120.609 542.583 121.46C541.657 121.656 540.864 122.179 540.864 122.506C540.864 122.964 550.715 123.095 571.144 122.768C587.739 122.571 609.822 122.375 620.202 122.375H639.044L640.896 116.423C641.887 113.218 642.548 110.21 642.284 109.752C642.02 109.294 640.763 107.397 639.507 105.501L637.127 102.034L634.945 105.501C633.755 107.332 632.763 109.163 632.763 109.49C632.763 109.752 631.573 111.714 630.185 113.807C625.16 121.067 620.797 123.16 616.565 120.348C613.524 118.255 612.136 114.919 612.136 109.817C612.202 101.969 617.359 89.2801 621.524 86.7947C625.094 84.7671 628.268 85.8136 629.193 89.4763C630.185 93.2044 626.549 100.137 619.805 107.397C615.772 111.78 615.309 113.676 617.822 116.162C619.276 117.601 619.739 117.666 621.326 117.077C622.317 116.685 623.838 115.769 624.697 114.984C627.078 112.826 632.168 104.389 635.342 97.5212C636.929 94.1201 638.515 90.5882 638.978 89.7379C639.904 87.645 646.78 80.5158 647.771 80.5158C648.697 80.5158 650.614 82.3471 650.614 83.132C650.614 83.459 648.962 85.4212 646.912 87.5142C643.143 91.4385 640.763 95.4282 640.697 97.979C640.697 100.007 643.408 105.37 644.466 105.37C645.854 105.37 660.928 74.7601 660.003 73.8444C659.738 73.5828 652.862 73.1904 644.664 72.9942C636.466 72.7326 629.524 72.2747 629.193 72.0131C627.21 70.1817 630.912 69.6585 650.284 69.0699C657.226 68.8736 663.044 68.4812 663.308 68.2196C663.705 67.8272 666.416 61.5482 671.507 49.4483C674.35 42.5807 675.341 40.9456 676.796 40.7493C679.308 40.4223 679.705 41.9266 678.25 45.851C674.614 55.6618 670.449 67.5655 670.449 68.1542C670.449 68.4812 670.912 68.7428 671.441 68.7428C673.358 68.7428 676.399 70.705 676.399 71.9477C676.399 73.452 675.143 73.9753 671.441 73.9753C668.135 73.9753 668.267 73.6482 666.151 84.1131C665.556 86.9909 664.961 89.4763 664.829 89.7379C664.168 90.7844 659.87 116.554 659.87 119.628C659.87 121.656 659.937 121.721 662.846 121.721H665.821L667.87 117.339C668.994 114.919 670.515 111.453 671.242 109.687C674.151 102.427 675.011 100.268 676.928 96.1477C679.11 91.3077 679.771 90.719 681.688 91.3077C683.341 91.8309 683.341 93.3352 681.688 99.1563C679.573 106.351 680.102 106.089 684.399 97.5212C688.697 89.2147 691.87 85.0942 694.052 85.0942C695.969 85.0942 696.564 86.0752 698.217 91.5039C699.01 94.0547 699.936 96.4093 700.333 96.6055C701.258 97.1942 703.11 95.232 705.556 91.3077C708.663 86.2715 713.093 84.2439 715.671 86.7947C719.374 90.392 716.332 98.3714 708.002 107.136C703.705 111.649 703.176 113.611 705.754 116.162C707.539 117.928 709.523 117.797 712.035 115.573C716.134 111.91 724.002 97.7828 725.721 90.9806C726.316 88.6915 727.241 86.1406 727.77 85.3558C728.564 84.0477 728.96 83.9823 730.349 84.5709C731.208 84.9634 731.936 85.6174 731.936 86.0098C731.936 86.3369 731.01 89.8688 729.886 93.7931C728.762 97.7174 727.969 101.053 728.101 101.184C728.299 101.315 729.886 99.2871 731.605 96.6709C738.15 87.1217 745.754 81.9547 747.803 85.6828C748.993 87.9066 748.53 91.1769 745.754 100.203C743.043 109.163 741.853 115.835 742.977 115.835C743.572 115.835 746.15 111.649 750.977 102.754C755.274 94.7742 759.638 90.1958 762.745 90.1958C763.803 90.1958 764.596 89.6725 764.861 88.9531C766.448 84.7671 788.927 63.8374 795.141 60.8288C805.654 55.6618 821.455 58.8012 848.298 71.1628C851.008 72.4055 854.777 74.0407 856.562 74.8255C863.504 77.7688 894.38 93.466 901.851 97.8482C924.726 111.256 932.263 116.423 932.263 118.843C932.263 120.151 929.024 120.348 890.942 120.74C871.306 120.936 850.479 121.263 844.661 121.394C838.843 121.525 821.124 121.852 805.323 122.114C772.266 122.571 762.282 122.833 761.753 123.422C761.357 123.814 985.155 123.225 1026.48 122.702C1039.24 122.506 1060.59 122.31 1073.95 122.244C1095.96 122.179 1098.34 122.244 1099.4 123.225C1100.26 124.141 1100.33 124.599 1099.8 125.515C1099 126.757 1099.67 126.757 903.834 125.776C857.818 125.515 798.05 125.449 771.009 125.645L721.754 125.973L721.225 127.935C718.25 138.792 715.209 158.217 715.142 166.851C715.076 173.98 715.01 174.372 713.688 174.569C709.655 175.157 709.192 169.794 711.704 153.704C713.556 142.455 714.151 139.381 716.002 131.859C716.729 128.981 717.126 126.43 716.994 126.169C716.795 125.842 705.622 125.645 692.201 125.645H667.738L666.614 127.673C664.234 131.924 662.713 133.821 661.061 134.671C657.953 136.11 656.499 134.475 655.573 128.458L655.11 125.645H619.937C576.83 125.645 528.963 126.365 528.963 126.954C528.963 127.477 543.641 127.673 599.243 127.935C625.359 128 636.995 128.262 637.524 128.785C637.92 129.177 638.053 129.962 637.854 130.485C637.458 131.401 631.309 131.532 577.293 131.532H517.129L516.468 134.017C516.071 135.325 514.154 143.959 512.104 153.116C508.269 170.317 506.286 178.689 505.096 182.417C504.369 184.641 502.583 185.23 501.261 183.595ZM503.178 171.233C503.178 171.102 505.096 163.384 507.476 154.031C509.79 144.744 511.906 135.783 512.17 134.214L512.633 131.336L487.906 131.794C474.286 131.99 456.369 132.186 447.973 132.251H432.766L441.361 134.41C453.592 137.549 462.584 140.82 472.435 145.594C481.361 149.976 486.65 153.443 492.27 158.741C496.038 162.272 500.931 168.29 501.526 170.187C501.856 171.168 503.178 172.018 503.178 171.233ZM663.837 126.169C663.837 125.645 660.333 125.449 659.804 125.973C659.606 126.103 659.606 127.346 659.738 128.72L660.069 131.14L661.92 128.916C662.978 127.673 663.837 126.43 663.837 126.169ZM531.41 120.675C544.104 116.423 564.996 107.07 575.574 100.988C592.5 91.1115 604.136 80.385 608.499 70.705C610.351 66.5844 610.351 59.5861 608.433 55.9888C607.045 53.3072 602.285 48.4018 598.648 45.9818C590.847 40.7493 575.905 35.3861 558.252 31.5272C540.203 27.6029 541.723 27.6683 540.93 30.6115C538.748 38.7218 530.55 72.1439 527.376 86.0752C525.261 95.1012 522.616 106.809 521.36 112.172C520.104 117.535 519.244 122.179 519.443 122.506C520.17 123.618 524.534 122.964 531.41 120.675ZM645.193 117.404C645.391 114.919 645.259 113.807 644.796 114.134C643.871 114.657 642.416 120.805 643.011 121.721C643.871 123.16 644.862 121.198 645.193 117.404ZM655.639 119.759C656.499 111.649 661.193 86.2061 663.507 77.8996C664.3 74.8255 664.366 73.125 663.573 74.0407C663.176 74.4985 647.507 106.285 647.11 107.528C646.846 108.182 647.176 109.883 647.771 111.322C648.499 113.153 648.697 115.115 648.433 117.797C648.234 119.89 648.3 121.787 648.499 122.048C648.697 122.244 650.35 122.375 652.201 122.244C655.375 122.048 655.441 121.983 655.639 119.759ZM675.738 121.46C675.738 121.329 675.275 120.348 674.746 119.367C674.217 118.32 673.755 116.358 673.755 115.05C673.755 113.676 673.49 112.564 673.226 112.564C672.763 112.564 670.912 117.274 669.92 120.936C669.788 121.46 670.647 121.721 672.697 121.721C674.35 121.721 675.738 121.59 675.738 121.46ZM703.903 119.955C700.201 116.62 699.143 111.649 700.531 104.847C701.523 100.334 701.391 99.4833 699.87 99.4833C698.349 99.4833 696.432 96.9325 695.572 93.7277C695.11 92.0271 694.515 90.392 694.184 90.065C693.06 88.8223 688.498 97.8482 683.606 110.733C682.614 113.545 681.093 117.077 680.366 118.582C679.639 120.086 679.044 121.394 679.044 121.525C679.044 121.656 684.994 121.721 692.333 121.656L705.622 121.525L703.903 119.955ZM718.382 120.936C718.713 120.675 719.704 117.012 720.961 111.78C721.556 109.229 720.564 109.49 719.043 112.303C718.316 113.611 716.332 116.162 714.614 117.862C712.828 119.628 711.44 121.198 711.44 121.394C711.44 121.787 717.919 121.394 718.382 120.936ZM738.878 119.89C736.564 114.527 736.828 111.583 740.927 98.6331C742.183 94.7087 743.109 91.3077 742.977 91.2423C742.58 90.8498 737.026 96.9325 734.448 100.464C731.539 104.52 723.803 119.563 724.266 120.282C724.465 120.609 727.903 120.871 731.936 120.936C738.679 121.002 739.274 120.936 738.878 119.89ZM754.415 119.824C754.415 119.497 753.952 118.909 753.423 118.451C752.894 117.993 752.233 116.489 752.034 115.115C751.77 113.676 751.439 112.564 751.175 112.564C750.977 112.564 750.051 114.069 749.192 115.835C748.266 117.666 747.274 119.105 747.01 119.105C746.745 119.105 746.481 119.432 746.481 119.759C746.481 120.151 748.266 120.413 750.448 120.413C752.63 120.413 754.415 120.151 754.415 119.824ZM812.926 119.432C820.199 119.236 836.132 118.974 848.298 118.778C860.463 118.582 873.223 118.255 876.595 118.124C879.967 117.928 889.818 117.797 898.413 117.731C907.008 117.666 916.792 117.47 920.032 117.208L925.982 116.816L920.892 113.415C916.264 110.275 912.363 107.855 906.809 104.716C905.751 104.127 903.503 102.819 901.851 101.838C900.198 100.922 897.223 99.2871 895.239 98.2406C893.256 97.1287 889.355 95.1012 886.644 93.5969C879.702 89.8688 854.711 77.8996 853.785 77.8996C853.587 77.8996 851.603 77.0493 849.422 76.0028C847.174 75.0217 844.595 73.9099 843.67 73.6482C842.744 73.3866 841.752 72.9288 841.356 72.6672C840.165 71.7515 822.777 65.538 816.629 63.772C805.984 60.7634 798.513 62.1369 789.984 68.7428C783.836 73.5174 776.1 81.1698 772.001 86.6639C770.084 89.2147 770.018 89.4763 769.952 97.4558C769.885 104.65 769.621 106.416 768.034 110.995C767.043 113.938 765.456 117.077 764.596 117.993C763.737 118.909 763.01 119.89 763.01 120.151C763.01 120.348 771.274 120.413 781.389 120.151C791.439 119.89 805.654 119.563 812.926 119.432ZM761.886 113.742C764.001 109.294 765.72 101.576 765.522 97.3904L765.324 93.2698L763.076 95.559C759.439 99.2217 757.522 104.193 757.191 110.537C756.927 114.592 757.125 116.096 757.786 116.489C759.043 117.274 760.695 116.162 761.886 113.742ZM621.854 96.7363C624.235 92.7466 624.631 91.6347 623.507 91.6347C622.912 91.6347 618.813 98.4369 617.822 101.118C616.83 103.604 619.474 100.857 621.854 96.7363ZM708.465 98.9601C711.308 94.6433 712.366 92.3542 711.837 91.7655C711.176 91.1769 709.721 93.139 707.407 97.7828C705.291 102.1 705.291 102.1 706.019 102.1C706.283 102.034 707.407 100.661 708.465 98.9601Z" fill="white"/>
<path d="M216.635 175.548C215.577 175.287 215.445 174.764 215.775 171.559C215.974 169.466 217.164 162.86 218.486 156.712C219.808 150.629 222.85 136.305 225.23 124.99C227.61 113.675 229.858 102.818 230.254 100.921C230.651 99.0242 230.849 97.3891 230.717 97.2583C230.453 96.9967 220.469 96.5388 199.709 95.8848C194.09 95.6886 178.487 95.3615 164.999 95.1653C151.578 94.9691 140.404 94.7075 140.206 94.5767C140.008 94.4459 119.777 94.3151 95.248 94.1842C53.2652 93.988 49.7611 94.0534 36.0753 95.4269C28.0754 96.2118 16.902 96.9313 11.2823 97.0621C1.29896 97.1929 1.0345 97.1275 0.836154 95.8194C0.373351 92.6145 6.38979 91.8951 46.6537 90.6524C61.0006 90.1945 67.2815 89.4751 86.3225 86.3356C129.76 79.141 164.272 68.5454 198.056 51.9978C219.742 41.4021 231.841 33.3573 245.329 20.5378C248.568 17.4638 248.833 17.333 249.89 18.5757C250.419 19.2297 250.155 21.5843 248.965 27.6016C246.188 41.86 240.833 69.7881 237.659 86.8588C236.998 90.1945 236.667 93.0724 236.8 93.2032C236.998 93.3994 240.238 93.7264 244.072 93.9226L251.081 94.3805L253.461 90.587C254.717 88.4286 256.7 86.2048 257.758 85.6161C261.13 83.654 264.502 84.2426 264.502 86.7934C264.502 87.9053 263.841 88.6902 261.989 89.6059C258.221 91.5026 253.791 99.8745 251.676 109.162C250.948 112.171 250.948 113.217 251.477 113.021C252.403 112.759 257.824 104.126 260.667 98.3048C262.717 94.1188 265.758 90.3253 267.014 90.3253C268.27 90.3253 269.857 92.4183 269.46 93.5302C266.551 100.79 265.229 114.852 267.213 116.88C268.27 117.861 268.535 117.534 270.915 112.498C272.369 109.489 274.948 103.406 276.667 99.0242C278.518 94.4459 280.237 90.9794 280.7 90.9794C283.675 90.9794 284.27 92.8107 283.08 97.5199C281.229 104.649 281.559 104.584 286.915 96.5388C294.452 85.2237 296.898 83.1307 299.543 85.9432C301.196 87.6437 301.196 89.0826 299.477 96.8659C296.567 110.274 295.906 117.142 297.559 117.142C298.22 117.142 300.931 111.975 303.906 105.042C306.683 98.501 309.129 94.2497 310.121 94.2497C311.377 94.2497 310.782 96.9967 308.534 102.033C307.344 104.78 305.229 109.62 303.84 112.759C301.196 118.777 299.014 121.72 297.229 121.72C296.634 121.72 295.444 121 294.584 120.085C293.13 118.711 292.931 117.926 292.931 114.002C292.931 111.517 293.658 105.565 294.584 100.79C296.501 90.7832 296.369 91.6334 295.708 91.6334C295.377 91.6334 294.452 92.8761 293.526 94.3805C292.667 95.8848 291.146 98.4356 290.154 100.071C289.163 101.706 286.65 106.35 284.601 110.274C279.973 119.169 278.65 121.066 277.064 121.066C275.345 121.066 274.221 118.777 274.551 116.16C274.882 113.348 274.221 113.806 272.303 117.599C270.452 121.262 268.667 122.243 266.089 120.935C263.642 119.823 262.518 117.403 261.791 111.713C261.461 109.227 261.064 107.004 260.932 106.807C260.733 106.677 260.006 107.789 259.213 109.293C254.452 118.45 251.609 121 248.304 118.842C245.395 116.945 245.329 111.059 248.039 102.425C248.766 100.071 249.163 97.8469 248.965 97.5199C248.766 97.1275 245.659 96.8659 242.089 96.8659H235.676L233.825 106.219C232.833 111.32 230.849 121.72 229.395 129.242C221.197 171.886 220.602 174.698 219.345 175.483C218.883 175.745 218.42 175.941 218.221 175.941C218.023 175.876 217.362 175.745 216.635 175.548ZM231.709 92.4837C232.635 89.4097 245.329 27.7324 245.329 26.1627C245.329 25.7703 244.205 26.4243 242.882 27.5362C226.089 41.533 211.346 50.5589 190.652 59.6502C162.751 71.881 132.537 80.6453 92.934 88.0361C86.3887 89.2134 81.1656 90.2599 81.3639 90.3253C82.3557 90.587 89.7605 90.7832 117.727 91.241C134.652 91.5026 156.933 91.9605 167.313 92.2875C177.693 92.5491 192.569 92.8761 200.37 92.8761C208.172 92.9416 214.651 93.1378 214.85 93.2686C214.982 93.4648 218.817 93.5956 223.246 93.5956C230.387 93.5956 231.378 93.4648 231.709 92.4837Z" fill="white"/>
</svg>
